
<svg xmlns="http://www.w3.org/2000/svg" width="82" height="40" fill="none">
  <g fill="#1F2B48" clip-path="url(#a)">
    <path d="M27.1773 39.4073 13.5201 19.5484h5.0211c2.3098 0 4.193-1.8823 4.193-4.1929-.0021-1.1114-.4445-2.1767-1.2304-2.9626-.7859-.7858-1.8512-1.2283-2.9626-1.2303h-7.5309v21.2651H7.41968V7.57275H18.5412c4.2934 0 7.7828 3.49015 7.7828 7.78275.0009 1.7702-.6037 3.4874-1.7133 4.8666-1.1097 1.3792-2.6578 2.3373-4.3871 2.7154l9.9161 14.4117-2.9624 2.0588v-.0007Zm38.2988-17.4675-2.4015 2.6675 8.6557 7.7945 2.4023-2.6675-8.6565-7.7945Z"/>
    <path d="M61.7215 7.57275c-6.8533 0-12.4015 5.57335-12.4015 12.40235 0 4.8706-3.9671 8.8126-8.8118 8.8126-4.8706 0-8.8118-3.9671-8.8118-8.8126 0-4.8706 3.9663-8.8125 8.8118-8.8125 2.7365 0 5.2973 1.2807 6.9788 3.4149l2.3851-2.6863c-1.1672-1.3534-2.6121-2.43962-4.2366-3.18478-1.6244-.74517-3.3903-1.13182-5.1775-1.13367-6.8541 0-12.4023 5.57335-12.4023 12.40235 0 6.8541 5.5733 12.4024 12.4023 12.4024 6.8533 0 12.4016-5.5734 12.4016-12.4024 0-4.8706 3.9663-8.8125 8.8117-8.8125 4.8455 0 8.8118 3.967 8.8118 8.8125 0 4.8706-3.9663 8.8126-8.8118 8.8126-1.3489-.0011-2.6796-.3117-3.8896-.9081-1.2099-.5965-2.2668-1.4627-3.0892-2.5319l-2.4353 2.6862c1.1623 1.3611 2.6056 2.4542 4.2308 3.2041 1.6252.7498 3.3935 1.1385 5.1833 1.1395 6.8534 0 12.4016-5.5734 12.4016-12.4024.0502-6.829-5.5231-12.40235-12.3514-12.40235Z"/>
    <path d="M81.3537.39209H.214844V39.6078H22.9599l-2.4862-3.5906H3.80543V3.98268H77.7639V36.0188H24.8423l2.4604 3.5898h54.051V.39209Z"/>
  </g>
  <defs>
    <clipPath id="a">
      <path fill="#fff" d="M0 0h81.5686v40H0z"/>
    </clipPath>
  </defs>
</svg>
