<?xml version="1.0" encoding="UTF-8"?>
<svg viewBox="0 0 32 32" xmlns="http://www.w3.org/2000/svg">
<path d="m7.2705 15.959c0.60506 0 1.0855-0.1447 1.4412-0.4342 0.17557-0.1395 0.31569-0.3186 0.40891-0.5226 0.09322-0.2039 0.13691-0.427 0.12752-0.6511v-0.028c0-0.521-0.17368-0.9188-0.52243-1.1877s-0.84036-0.4062-1.4692-0.4062h-2.4552v8.059h-1.6695v-9.5772h4.269c0.54401-0.0115 1.0858 0.0724 1.6009 0.2479 0.43309 0.1476 0.82949 0.3864 1.1625 0.7003 0.2552 0.263 0.4553 0.5744 0.5883 0.916 0.1408 0.3667 0.2107 0.757 0.2058 1.1498v0.0351c0.0051 0.3611-0.0528 0.7203-0.1708 1.0616-0.1076 0.3053-0.2673 0.5896-0.472 0.8404-0.2035 0.244-0.44634 0.4523-0.71854 0.6162-0.28833 0.1729-0.5995 0.3044-0.92439 0.3908l3.5197 5.0169h18.763v-12.367h-29.216v12.362h6.4512l0.96361 1.3922h-8.807v-15.146h32v15.146h-21.196l-3.6219-5.2354-0.11485-0.1653-0.50001-0.7213-1.0448-1.4916h1.4006z" clip-rule="evenodd" fill="currentColor" fill-rule="evenodd"/>
<path d="m24.844 19.408c0.3 0.0019 0.5986-0.0396 0.8866-0.1233 0.2651-0.0787 0.5178-0.1942 0.7507-0.3431l-1.6429-1.4006 1.0813-1.2312 1.6471 1.5043c0.3347-0.5364 0.5042-1.1594 0.4874-1.7914v-0.028c0.0016-0.4489-0.0796-0.8943-0.2395-1.3138-0.1469-0.4005-0.3727-0.7674-0.664-1.079-0.2914-0.3115-0.6424-0.5614-1.0321-0.7347-0.4122-0.1779-0.8564-0.2697-1.3054-0.2697-0.4489 0-0.8931 0.0918-1.3053 0.2697-0.384 0.1702-0.729 0.4171-1.0141 0.7255-0.2866 0.3126-0.5105 0.6773-0.6597 1.0742-0.1613 0.4191-0.2426 0.8647-0.2395 1.3138v0.0546c1e-3 0.6452-0.1246 1.2842-0.3697 1.881-0.2399 0.5874-0.593 1.1219-1.0393 1.5729-0.453 0.4565-0.9899 0.8213-1.5812 1.0743-0.6406 0.2703-1.3301 0.4052-2.0253 0.3963-0.695 7e-3 -1.3842-0.1278-2.0253-0.3963-0.5863-0.2431-1.1182-0.6006-1.5645-1.0518-0.4464-0.4512-0.7982-0.9869-1.035-1.5758-0.2482-0.6051-0.3738-1.2535-0.3697-1.9076v-0.028c-4e-3 -0.6545 0.1217-1.3033 0.3697-1.909 0.2399-0.5874 0.593-1.1219 1.0393-1.5729 0.4725-0.475 1.0359-0.85 1.6565-1.1027 0.6206-0.2526 1.2856-0.3777 1.9556-0.3679 0.6945-0.0085 1.3835 0.1239 2.0253 0.3894 0.5898 0.2456 1.1249 0.606 1.5742 1.0602l0.0197 0.021c-0.3015 0.3943-0.5497 0.8266-0.7382 1.2858-0.0504 0.1246-0.098 0.2507-0.14 0.3781-0.1202-0.2102-0.2645-0.4058-0.43-0.5826-0.2914-0.3097-0.6413-0.5587-1.0294-0.7325-0.6033-0.2752-1.2778-0.3539-1.9282-0.2249-0.6504 0.1289-1.2439 0.4589-1.6966 0.9434-0.2866 0.3126-0.5105 0.6773-0.6597 1.0742-0.1613 0.4191-0.2426 0.8647-0.2395 1.3138v0.0266c-0.0027 0.4513 0.0785 0.8992 0.2395 1.3208 0.1469 0.4001 0.3725 0.7667 0.6636 1.078s0.6418 0.561 1.0312 0.7343c0.4119 0.1788 0.8562 0.2711 1.3053 0.2711s0.8934-0.0923 1.3054-0.2711c0.3844-0.17 0.73-0.4169 1.0154-0.7255 0.2859-0.3128 0.5094-0.6774 0.6583-1.0742 0.1612-0.4186 0.2425-0.8638 0.2395-1.3124v-0.028c-4e-3 -0.6545 0.1217-1.3033 0.3697-1.909 0.2399-0.5874 0.593-1.1219 1.0393-1.5729 0.4724-0.4752 1.0357-0.8504 1.6563-1.1031s1.2858-0.3777 1.9558-0.3675c0.6945-0.0085 1.3835 0.1239 2.0253 0.3894 0.5864 0.2438 1.1181 0.6026 1.5638 1.055s0.7964 0.9895 1.0315 1.5795c0.2482 0.6056 0.3739 1.2545 0.3698 1.909v0.0266c0.0022 0.5323-0.0811 1.0614-0.2465 1.5673-0.1632 0.4954-0.4084 0.9599-0.7256 1.374l1.0953 0.9314-1.0813 1.2031-1.1484-1.0253c-0.4101 0.2911-0.8627 0.5169-1.3418 0.6695-1.1825 0.3569-2.4512 0.3016-3.5981-0.1568-0.5885-0.246-1.1222-0.6064-1.5701-1.0603l-0.021-0.021c0.3011-0.394 0.5493-0.8258 0.7381-1.2844 0.0518-0.126 0.098-0.2521 0.14-0.3809 0.335 0.5837 0.8478 1.0451 1.4637 1.3165 0.4106 0.1848 0.8564 0.2784 1.3067 0.2746z" clip-rule="evenodd" fill="currentColor" fill-rule="evenodd"/>
</svg>
